<svg width="155" height="113" viewBox="0 0 155 113" fill="none" xmlns="http://www.w3.org/2000/svg">
<g clip-path="url(#clip0_2404_1805)">
<path d="M0.284665 80.1137C13.4231 88.7518 54.8762 86.1357 79.3314 75.6064C105.788 64.2854 118.39 53.2572 139.38 22.7222C140.122 24.8641 140.541 26.6799 141.194 28.2296C141.863 30.0275 142.588 31.9211 143.642 33.4919C143.924 33.9706 145.3 34.3212 145.935 34.0762C146.57 33.8313 147.14 32.5932 147.051 32.001C146.082 26.3833 144.92 20.8793 143.798 15.2227C143.378 13.4069 142.123 12.5988 140.202 13.0854C133.03 15.2447 125.802 17.3082 118.59 19.62C116.974 20.1845 115.464 21.5896 113.534 22.7254C117.501 25.9336 120.692 23.4106 123.82 22.9873C127.101 22.6029 130.292 21.6263 134.345 20.7877C129.495 30.8623 123.365 38.9832 116.02 46.1434C89.1963 72.5062 56.426 83.0317 19.449 81.3368C14.6238 81.0833 9.86248 80.2766 5.07737 79.8706C3.73451 80.0165 2.48809 80.1057 0.284665 80.1137Z" fill="white"/>
</g>
<defs>
<clipPath id="clip0_2404_1805">
<rect width="156.785" height="37.6072" fill="white" transform="matrix(0.861758 -0.50732 -0.50732 -0.861758 19.3633 112.522)"/>
</clipPath>
</defs>
</svg>
