<svg width="355" height="198" viewBox="0 0 355 198" fill="none" xmlns="http://www.w3.org/2000/svg">
<g filter="url(#filter0_d_2404_1768)">
<rect x="30" y="26" width="294.083" height="138" rx="4.8" fill="white" shape-rendering="crispEdges"/>
<path fill-rule="evenodd" clip-rule="evenodd" d="M177.041 48.6455L184.179 52.611V63.0241H178.469V58.0276H175.614V63.0241H169.903V52.611L177.041 48.6455ZM171.331 53.451V61.5965H174.186V56.6H179.896V61.5965H182.752V53.451L177.041 50.2786L171.331 53.451Z" fill="#006D77"/>
<path d="M136.34 77.0567C136.637 77.0567 136.877 77.1595 137.06 77.3651C137.243 77.5592 137.334 77.8048 137.334 78.1017V84.3031C137.334 85.251 137.128 86.0905 136.717 86.8214C136.318 87.5523 135.764 88.1233 135.056 88.5345C134.348 88.9456 133.525 89.1512 132.589 89.1512C131.652 89.1512 130.824 88.9456 130.105 88.5345C129.397 88.1233 128.837 87.5523 128.426 86.8214C128.026 86.0905 127.826 85.251 127.826 84.3031V78.1017C127.826 77.8048 127.929 77.5592 128.135 77.3651C128.34 77.1595 128.603 77.0567 128.923 77.0567C129.185 77.0567 129.42 77.1595 129.625 77.3651C129.842 77.5592 129.951 77.8048 129.951 78.1017V84.3031C129.951 84.8742 130.07 85.371 130.31 85.7935C130.562 86.2047 130.887 86.5244 131.287 86.7529C131.698 86.9813 132.132 87.0955 132.589 87.0955C133.08 87.0955 133.537 86.9813 133.959 86.7529C134.382 86.5244 134.724 86.2047 134.987 85.7935C135.25 85.371 135.381 84.8742 135.381 84.3031V78.1017C135.381 77.8048 135.467 77.5592 135.638 77.3651C135.809 77.1595 136.044 77.0567 136.34 77.0567ZM144.633 79.7291C145.478 79.7291 146.118 79.9062 146.552 80.2602C146.997 80.6142 147.3 81.0882 147.46 81.6821C147.631 82.2645 147.717 82.9155 147.717 83.635V88.0206C147.717 88.3175 147.62 88.5688 147.426 88.7743C147.231 88.9685 146.986 89.0656 146.689 89.0656C146.392 89.0656 146.146 88.9685 145.952 88.7743C145.758 88.5688 145.661 88.3175 145.661 88.0206V83.635C145.661 83.2581 145.61 82.9212 145.507 82.6243C145.416 82.3159 145.244 82.0704 144.993 81.8876C144.742 81.7049 144.382 81.6136 143.914 81.6136C143.457 81.6136 143.069 81.7049 142.749 81.8876C142.44 82.0704 142.201 82.3159 142.029 82.6243C141.869 82.9212 141.789 83.2581 141.789 83.635V88.0206C141.789 88.3175 141.692 88.5688 141.498 88.7743C141.304 88.9685 141.059 89.0656 140.762 89.0656C140.465 89.0656 140.219 88.9685 140.025 88.7743C139.831 88.5688 139.734 88.3175 139.734 88.0206V80.9454C139.734 80.6485 139.831 80.403 140.025 80.2088C140.219 80.0032 140.465 79.9004 140.762 79.9004C141.059 79.9004 141.304 80.0032 141.498 80.2088C141.692 80.403 141.789 80.6485 141.789 80.9454V81.6821L141.532 81.6307C141.635 81.4365 141.784 81.231 141.978 81.014C142.172 80.7856 142.4 80.5743 142.663 80.3801C142.926 80.186 143.223 80.0318 143.554 79.9176C143.885 79.792 144.245 79.7291 144.633 79.7291ZM154.65 76.3886C154.901 76.3886 155.147 76.4228 155.386 76.4914C155.626 76.5599 155.826 76.6741 155.986 76.834C156.146 76.9825 156.226 77.1823 156.226 77.4336C156.226 77.7191 156.14 77.9475 155.969 78.1188C155.809 78.2787 155.621 78.3587 155.404 78.3587C155.301 78.3587 155.147 78.3358 154.941 78.2901C154.735 78.233 154.536 78.2045 154.341 78.2045C154.056 78.2045 153.833 78.2673 153.673 78.3929C153.525 78.5185 153.422 78.667 153.365 78.8383C153.308 78.9982 153.279 79.141 153.279 79.2666V88.0206C153.279 88.3175 153.182 88.5688 152.988 88.7743C152.794 88.9685 152.548 89.0656 152.251 89.0656C151.954 89.0656 151.709 88.9685 151.515 88.7743C151.321 88.5688 151.224 88.3175 151.224 88.0206V79.2837C151.224 78.4729 151.509 77.7876 152.08 77.228C152.651 76.6684 153.508 76.3886 154.65 76.3886ZM154.838 80.0718C155.112 80.0718 155.341 80.1631 155.523 80.3459C155.706 80.5172 155.798 80.7399 155.798 81.014C155.798 81.2881 155.706 81.5165 155.523 81.6992C155.341 81.8705 155.112 81.9562 154.838 81.9562H150.298C150.024 81.9562 149.796 81.8705 149.613 81.6992C149.431 81.5165 149.339 81.2881 149.339 81.014C149.339 80.7399 149.431 80.5172 149.613 80.3459C149.796 80.1631 150.024 80.0718 150.298 80.0718H154.838ZM164.218 79.9004C164.515 79.9004 164.76 80.0032 164.954 80.2088C165.149 80.403 165.246 80.6485 165.246 80.9454V85.2967C165.246 86.5073 164.909 87.4667 164.235 88.1747C163.561 88.8828 162.59 89.2369 161.323 89.2369C160.055 89.2369 159.084 88.8828 158.41 88.1747C157.748 87.4667 157.417 86.5073 157.417 85.2967V80.9454C157.417 80.6485 157.514 80.403 157.708 80.2088C157.902 80.0032 158.148 79.9004 158.445 79.9004C158.742 79.9004 158.987 80.0032 159.181 80.2088C159.375 80.403 159.473 80.6485 159.473 80.9454V85.2967C159.473 85.9934 159.627 86.513 159.935 86.8556C160.243 87.1868 160.706 87.3524 161.323 87.3524C161.951 87.3524 162.419 87.1868 162.727 86.8556C163.036 86.513 163.19 85.9934 163.19 85.2967V80.9454C163.19 80.6485 163.287 80.403 163.481 80.2088C163.675 80.0032 163.921 79.9004 164.218 79.9004ZM168.499 89.0656C168.202 89.0656 167.957 88.9685 167.763 88.7743C167.568 88.5688 167.471 88.3175 167.471 88.0206V80.9454C167.471 80.6485 167.568 80.403 167.763 80.2088C167.957 80.0032 168.202 79.9004 168.499 79.9004C168.796 79.9004 169.042 80.0032 169.236 80.2088C169.43 80.403 169.527 80.6485 169.527 80.9454V82.5558L169.407 81.408C169.533 81.1339 169.693 80.894 169.887 80.6885C170.092 80.4715 170.321 80.2945 170.572 80.1574C170.823 80.0089 171.092 79.9004 171.377 79.8319C171.663 79.7634 171.948 79.7291 172.234 79.7291C172.576 79.7291 172.862 79.8262 173.09 80.0204C173.33 80.2145 173.45 80.4429 173.45 80.7056C173.45 81.0825 173.353 81.3566 173.159 81.5279C172.965 81.6878 172.753 81.7677 172.525 81.7677C172.308 81.7677 172.108 81.7278 171.925 81.6478C171.754 81.5679 171.554 81.5279 171.326 81.5279C171.12 81.5279 170.909 81.5793 170.692 81.6821C170.486 81.7734 170.292 81.9219 170.109 82.1275C169.938 82.3331 169.795 82.59 169.681 82.8984C169.578 83.1953 169.527 83.5494 169.527 83.9605V88.0206C169.527 88.3175 169.43 88.5688 169.236 88.7743C169.042 88.9685 168.796 89.0656 168.499 89.0656ZM179.799 79.7291C180.644 79.7291 181.283 79.9062 181.717 80.2602C182.163 80.6142 182.465 81.0882 182.625 81.6821C182.797 82.2645 182.882 82.9155 182.882 83.635V88.0206C182.882 88.3175 182.785 88.5688 182.591 88.7743C182.397 88.9685 182.151 89.0656 181.854 89.0656C181.557 89.0656 181.312 88.9685 181.118 88.7743C180.924 88.5688 180.827 88.3175 180.827 88.0206V83.635C180.827 83.2581 180.775 82.9212 180.672 82.6243C180.581 82.3159 180.41 82.0704 180.158 81.8876C179.907 81.7049 179.547 81.6136 179.079 81.6136C178.622 81.6136 178.234 81.7049 177.914 81.8876C177.606 82.0704 177.366 82.3159 177.195 82.6243C177.035 82.9212 176.955 83.2581 176.955 83.635V88.0206C176.955 88.3175 176.858 88.5688 176.664 88.7743C176.47 88.9685 176.224 89.0656 175.927 89.0656C175.63 89.0656 175.385 88.9685 175.19 88.7743C174.996 88.5688 174.899 88.3175 174.899 88.0206V80.9454C174.899 80.6485 174.996 80.403 175.19 80.2088C175.385 80.0032 175.63 79.9004 175.927 79.9004C176.224 79.9004 176.47 80.0032 176.664 80.2088C176.858 80.403 176.955 80.6485 176.955 80.9454V81.6821L176.698 81.6307C176.801 81.4365 176.949 81.231 177.143 81.014C177.338 80.7856 177.566 80.5743 177.829 80.3801C178.091 80.186 178.388 80.0318 178.719 79.9176C179.051 79.792 179.41 79.7291 179.799 79.7291ZM187.04 88.0206C187.04 88.3175 186.943 88.5688 186.749 88.7743C186.555 88.9685 186.309 89.0656 186.012 89.0656C185.715 89.0656 185.47 88.9685 185.276 88.7743C185.081 88.5688 184.984 88.3175 184.984 88.0206V80.9454C184.984 80.6485 185.081 80.403 185.276 80.2088C185.47 80.0032 185.715 79.9004 186.012 79.9004C186.309 79.9004 186.555 80.0032 186.749 80.2088C186.943 80.403 187.04 80.6485 187.04 80.9454V88.0206ZM185.995 78.7869C185.607 78.7869 185.333 78.7241 185.173 78.5985C185.013 78.4729 184.933 78.2502 184.933 77.9304V77.6049C184.933 77.2737 185.019 77.051 185.19 76.9368C185.373 76.8112 185.647 76.7483 186.012 76.7483C186.412 76.7483 186.692 76.8112 186.852 76.9368C187.011 77.0624 187.091 77.2851 187.091 77.6049V77.9304C187.091 78.2616 187.006 78.49 186.834 78.6156C186.663 78.7298 186.383 78.7869 185.995 78.7869ZM188.622 87.6437C188.507 87.4838 188.456 87.2782 188.468 87.027C188.479 86.7757 188.627 86.5587 188.913 86.376C189.096 86.2618 189.29 86.2161 189.495 86.2389C189.701 86.2504 189.901 86.3531 190.095 86.5473C190.426 86.8785 190.774 87.1355 191.14 87.3182C191.505 87.5009 191.962 87.5923 192.51 87.5923C192.682 87.5809 192.87 87.558 193.076 87.5238C193.281 87.4781 193.458 87.3867 193.607 87.2497C193.767 87.1012 193.847 86.8785 193.847 86.5816C193.847 86.3303 193.761 86.1304 193.59 85.982C193.418 85.8335 193.19 85.7079 192.904 85.6051C192.63 85.5023 192.322 85.4052 191.979 85.3139C191.625 85.2111 191.26 85.0969 190.883 84.9712C190.518 84.8456 190.181 84.6857 189.872 84.4916C189.564 84.286 189.313 84.0176 189.118 83.6864C188.924 83.3552 188.827 82.9384 188.827 82.4358C188.827 81.8648 188.987 81.3794 189.307 80.9797C189.627 80.58 190.038 80.2716 190.54 80.0546C191.054 79.8376 191.591 79.7291 192.151 79.7291C192.505 79.7291 192.876 79.7748 193.264 79.8662C193.653 79.9461 194.024 80.0832 194.378 80.2773C194.732 80.4601 195.029 80.7056 195.269 81.014C195.394 81.1853 195.468 81.3908 195.491 81.6307C195.514 81.8705 195.406 82.0875 195.166 82.2817C194.994 82.4187 194.795 82.4815 194.566 82.4701C194.338 82.4473 194.149 82.3673 194.001 82.2303C193.807 81.979 193.544 81.7792 193.213 81.6307C192.893 81.4822 192.522 81.408 192.099 81.408C191.928 81.408 191.74 81.4308 191.534 81.4765C191.34 81.5108 191.169 81.5964 191.02 81.7335C190.872 81.8591 190.797 82.0647 190.797 82.3502C190.797 82.6129 190.883 82.8241 191.054 82.984C191.226 83.1325 191.454 83.2581 191.74 83.3609C192.036 83.4523 192.351 83.5436 192.682 83.635C193.024 83.7264 193.373 83.8349 193.727 83.9605C194.081 84.0861 194.406 84.2517 194.703 84.4573C195 84.6629 195.24 84.9313 195.423 85.2625C195.605 85.5822 195.697 85.9934 195.697 86.4959C195.697 87.0784 195.525 87.5752 195.183 87.9863C194.84 88.3974 194.412 88.7115 193.898 88.9285C193.384 89.1341 192.859 89.2369 192.322 89.2369C191.648 89.2369 190.974 89.1227 190.301 88.8942C189.627 88.6544 189.067 88.2376 188.622 87.6437ZM202.231 79.7291C203.053 79.7291 203.676 79.9062 204.098 80.2602C204.532 80.6142 204.829 81.0882 204.989 81.6821C205.149 82.2645 205.229 82.9155 205.229 83.635V88.0206C205.229 88.3175 205.132 88.5688 204.938 88.7743C204.744 88.9685 204.498 89.0656 204.201 89.0656C203.904 89.0656 203.659 88.9685 203.464 88.7743C203.27 88.5688 203.173 88.3175 203.173 88.0206V83.635C203.173 83.2581 203.127 82.9212 203.036 82.6243C202.945 82.3159 202.779 82.0704 202.539 81.8876C202.299 81.7049 201.957 81.6136 201.511 81.6136C201.077 81.6136 200.706 81.7049 200.398 81.8876C200.09 82.0704 199.855 82.3159 199.696 82.6243C199.547 82.9212 199.473 83.2581 199.473 83.635V88.0206C199.473 88.3175 199.376 88.5688 199.182 88.7743C198.987 88.9685 198.742 89.0656 198.445 89.0656C198.148 89.0656 197.903 88.9685 197.708 88.7743C197.514 88.5688 197.417 88.3175 197.417 88.0206V77.4336C197.417 77.1366 197.514 76.8911 197.708 76.6969C197.903 76.4914 198.148 76.3886 198.445 76.3886C198.742 76.3886 198.987 76.4914 199.182 76.6969C199.376 76.8911 199.473 77.1366 199.473 77.4336V81.6821L199.216 81.6307C199.319 81.4365 199.461 81.231 199.644 81.014C199.827 80.7856 200.05 80.5743 200.312 80.3801C200.575 80.186 200.866 80.0318 201.186 79.9176C201.506 79.792 201.854 79.7291 202.231 79.7291ZM211.772 89.2369C210.801 89.2369 209.956 89.037 209.236 88.6373C208.528 88.2261 207.98 87.6722 207.592 86.9756C207.215 86.2789 207.027 85.4909 207.027 84.6115C207.027 83.5836 207.232 82.7099 207.643 81.9904C208.066 81.2595 208.614 80.6999 209.288 80.3116C209.962 79.9233 210.675 79.7291 211.429 79.7291C212.012 79.7291 212.56 79.8491 213.074 80.0889C213.599 80.3287 214.062 80.6599 214.461 81.0825C214.861 81.4936 215.175 81.9733 215.404 82.5215C215.643 83.0697 215.763 83.6521 215.763 84.2689C215.752 84.543 215.643 84.7657 215.438 84.937C215.232 85.1083 214.993 85.1939 214.718 85.1939H208.174L207.66 83.4808H213.948L213.571 83.8235V83.3609C213.548 83.0297 213.428 82.7328 213.211 82.4701C213.005 82.2074 212.743 82.0019 212.423 81.8534C212.114 81.6935 211.783 81.6136 211.429 81.6136C211.087 81.6136 210.767 81.6592 210.47 81.7506C210.173 81.842 209.916 81.9961 209.699 82.2131C209.482 82.4301 209.311 82.7214 209.185 83.0868C209.059 83.4523 208.997 83.9148 208.997 84.4744C208.997 85.0912 209.122 85.6165 209.374 86.0505C209.636 86.4731 209.967 86.7985 210.367 87.027C210.778 87.244 211.212 87.3524 211.669 87.3524C212.092 87.3524 212.429 87.3182 212.68 87.2497C212.931 87.1811 213.131 87.1012 213.279 87.0098C213.439 86.907 213.582 86.8214 213.708 86.7529C213.913 86.6501 214.107 86.5987 214.29 86.5987C214.541 86.5987 214.747 86.6843 214.907 86.8556C215.078 87.027 215.164 87.2268 215.164 87.4552C215.164 87.7636 215.004 88.0434 214.684 88.2947C214.387 88.5459 213.97 88.7686 213.434 88.9628C212.897 89.1455 212.343 89.2369 211.772 89.2369ZM225.063 76.3886C225.36 76.3886 225.605 76.4857 225.8 76.6798C225.994 76.874 226.091 77.1252 226.091 77.4336V88.0206C226.091 88.3175 225.994 88.5688 225.8 88.7743C225.605 88.9685 225.36 89.0656 225.063 89.0656C224.766 89.0656 224.52 88.9685 224.326 88.7743C224.132 88.5688 224.035 88.3175 224.035 88.0206V87.1811L224.412 87.3353C224.412 87.4838 224.332 87.6665 224.172 87.8835C224.012 88.0891 223.795 88.2947 223.521 88.5002C223.247 88.7058 222.921 88.8828 222.545 89.0313C222.179 89.1683 221.779 89.2369 221.345 89.2369C220.557 89.2369 219.844 89.037 219.204 88.6373C218.565 88.2261 218.056 87.6665 217.679 86.9584C217.314 86.2389 217.131 85.4166 217.131 84.4916C217.131 83.5551 217.314 82.7328 217.679 82.0247C218.056 81.3052 218.559 80.7456 219.187 80.3459C219.815 79.9347 220.512 79.7291 221.277 79.7291C221.768 79.7291 222.219 79.8034 222.63 79.9518C223.041 80.1003 223.395 80.2888 223.692 80.5172C224.001 80.7456 224.235 80.9797 224.395 81.2195C224.566 81.448 224.652 81.6421 224.652 81.802L224.035 82.0247V77.4336C224.035 77.1366 224.132 76.8911 224.326 76.6969C224.52 76.4914 224.766 76.3886 225.063 76.3886ZM221.602 87.3524C222.105 87.3524 222.545 87.2268 222.921 86.9756C223.298 86.7243 223.59 86.3817 223.795 85.9477C224.012 85.5137 224.121 85.0283 224.121 84.4916C224.121 83.9434 224.012 83.4523 223.795 83.0183C223.59 82.5843 223.298 82.2417 222.921 81.9904C222.545 81.7392 222.105 81.6136 221.602 81.6136C221.111 81.6136 220.677 81.7392 220.3 81.9904C219.924 82.2417 219.627 82.5843 219.41 83.0183C219.204 83.4523 219.101 83.9434 219.101 84.4916C219.101 85.0283 219.204 85.5137 219.41 85.9477C219.627 86.3817 219.924 86.7243 220.3 86.9756C220.677 87.2268 221.111 87.3524 221.602 87.3524Z" fill="#1D1D1D"/>
<path d="M72.7511 105.605V116.679H71.4101V105.605H72.7511ZM76.3918 105.605V106.578C76.3918 106.874 76.3377 107.189 76.2295 107.524C76.125 107.856 75.97 108.179 75.7645 108.492C75.5626 108.802 75.3175 109.073 75.0291 109.303L74.3369 108.741C74.564 108.417 74.7605 108.08 74.9263 107.73C75.0958 107.377 75.1805 107 75.1805 106.6V105.605H76.3918ZM79.3537 105.605V116.679H78.0776V105.605H79.3537ZM82.9673 105.605V116.679H81.6911V105.605H82.9673ZM89.7605 116.679V105.605H91.0367V109.693H91.1448C91.2386 109.549 91.3683 109.365 91.5342 109.141C91.7036 108.914 91.9451 108.712 92.2588 108.536C92.576 108.355 93.005 108.265 93.5458 108.265C94.2451 108.265 94.8616 108.44 95.3951 108.79C95.9287 109.139 96.3451 109.635 96.6443 110.277C96.9435 110.919 97.0931 111.676 97.0931 112.548C97.0931 113.428 96.9435 114.19 96.6443 114.835C96.3451 115.477 95.9305 115.975 95.4006 116.328C94.8706 116.678 94.2596 116.852 93.5674 116.852C93.0339 116.852 92.6067 116.764 92.2858 116.587C91.965 116.407 91.718 116.203 91.545 115.976C91.3719 115.746 91.2386 115.555 91.1448 115.403H90.9934V116.679H89.7605ZM91.0151 112.526C91.0151 113.154 91.107 113.707 91.2908 114.186C91.4747 114.662 91.7433 115.035 92.0966 115.306C92.4498 115.573 92.8825 115.706 93.3944 115.706C93.9279 115.706 94.3731 115.565 94.73 115.284C95.0905 114.999 95.3609 114.617 95.5411 114.138C95.725 113.655 95.8169 113.118 95.8169 112.526C95.8169 111.942 95.7268 111.416 95.5466 110.947C95.3699 110.475 95.1013 110.102 94.7408 109.828C94.3839 109.55 93.9351 109.412 93.3944 109.412C92.8752 109.412 92.439 109.543 92.0857 109.806C91.7325 110.066 91.4657 110.43 91.2854 110.899C91.1052 111.364 91.0151 111.906 91.0151 112.526ZM99.0452 116.679V108.373H100.278V109.628H100.365C100.516 109.217 100.79 108.883 101.187 108.628C101.583 108.372 102.03 108.244 102.528 108.244C102.621 108.244 102.739 108.245 102.879 108.249C103.02 108.253 103.126 108.258 103.198 108.265V109.563C103.155 109.552 103.056 109.536 102.901 109.514C102.749 109.489 102.589 109.477 102.42 109.477C102.016 109.477 101.655 109.561 101.338 109.731C101.024 109.896 100.776 110.127 100.592 110.423C100.412 110.715 100.321 111.048 100.321 111.423V116.679H99.0452ZM104.711 116.679V108.373H105.987V116.679H104.711ZM105.36 106.989C105.111 106.989 104.897 106.904 104.716 106.735C104.54 106.565 104.451 106.362 104.451 106.124C104.451 105.886 104.54 105.682 104.716 105.513C104.897 105.343 105.111 105.259 105.36 105.259C105.609 105.259 105.821 105.343 105.998 105.513C106.178 105.682 106.268 105.886 106.268 106.124C106.268 106.362 106.178 106.565 105.998 106.735C105.821 106.904 105.609 106.989 105.36 106.989ZM109.601 111.683V116.679H108.325V108.373H109.557V109.671H109.666C109.86 109.249 110.156 108.911 110.552 108.655C110.949 108.395 111.461 108.265 112.088 108.265C112.651 108.265 113.143 108.381 113.564 108.611C113.986 108.838 114.314 109.184 114.549 109.65C114.783 110.111 114.9 110.695 114.9 111.402V116.679H113.624V111.488C113.624 110.836 113.454 110.327 113.116 109.963C112.777 109.595 112.312 109.412 111.72 109.412C111.313 109.412 110.949 109.5 110.628 109.677C110.311 109.853 110.06 110.111 109.876 110.45C109.693 110.789 109.601 111.2 109.601 111.683ZM120.585 119.967C119.968 119.967 119.438 119.888 118.995 119.729C118.552 119.574 118.182 119.369 117.886 119.113C117.594 118.86 117.362 118.59 117.189 118.302L118.205 117.588C118.321 117.739 118.467 117.912 118.643 118.107C118.82 118.305 119.062 118.476 119.368 118.621C119.678 118.768 120.084 118.842 120.585 118.842C121.255 118.842 121.809 118.68 122.245 118.356C122.681 118.031 122.899 117.523 122.899 116.831V115.144H122.791C122.697 115.295 122.564 115.482 122.391 115.706C122.221 115.926 121.976 116.122 121.655 116.295C121.338 116.465 120.909 116.55 120.368 116.55C119.698 116.55 119.096 116.391 118.562 116.074C118.032 115.756 117.612 115.295 117.302 114.689C116.996 114.084 116.843 113.348 116.843 112.483C116.843 111.632 116.992 110.891 117.292 110.261C117.591 109.626 118.007 109.136 118.541 108.79C119.074 108.44 119.691 108.265 120.39 108.265C120.931 108.265 121.36 108.355 121.677 108.536C121.998 108.712 122.243 108.914 122.412 109.141C122.586 109.365 122.719 109.549 122.813 109.693H122.942V108.373H124.175V116.917C124.175 117.631 124.013 118.211 123.689 118.658C123.368 119.109 122.935 119.439 122.391 119.648C121.85 119.861 121.248 119.967 120.585 119.967ZM120.541 115.403C121.053 115.403 121.486 115.286 121.839 115.052C122.193 114.817 122.461 114.48 122.645 114.04C122.829 113.601 122.921 113.074 122.921 112.461C122.921 111.863 122.831 111.335 122.65 110.877C122.47 110.419 122.203 110.061 121.85 109.801C121.497 109.541 121.061 109.412 120.541 109.412C120.001 109.412 119.55 109.549 119.19 109.823C118.833 110.097 118.564 110.464 118.384 110.926C118.207 111.387 118.119 111.899 118.119 112.461C118.119 113.038 118.209 113.548 118.389 113.992C118.573 114.432 118.844 114.778 119.2 115.03C119.561 115.279 120.008 115.403 120.541 115.403ZM176.126 129.373V130.455H171.822V129.373H176.126ZM173.076 127.383H174.352V135.3C174.352 135.661 174.405 135.931 174.509 136.111C174.617 136.288 174.754 136.407 174.92 136.468C175.09 136.526 175.268 136.555 175.456 136.555C175.596 136.555 175.712 136.547 175.802 136.533C175.892 136.515 175.964 136.5 176.018 136.49L176.277 137.636C176.191 137.669 176.07 137.701 175.915 137.733C175.76 137.769 175.564 137.787 175.326 137.787C174.965 137.787 174.612 137.71 174.266 137.555C173.923 137.4 173.639 137.164 173.412 136.847C173.188 136.529 173.076 136.129 173.076 135.646V127.383ZM181.331 137.852C180.581 137.852 179.923 137.674 179.357 137.317C178.795 136.96 178.355 136.461 178.038 135.819C177.724 135.177 177.567 134.428 177.567 133.57C177.567 132.704 177.724 131.949 178.038 131.304C178.355 130.659 178.795 130.157 179.357 129.801C179.923 129.444 180.581 129.265 181.331 129.265C182.081 129.265 182.737 129.444 183.299 129.801C183.865 130.157 184.305 130.659 184.619 131.304C184.936 131.949 185.094 132.704 185.094 133.57C185.094 134.428 184.936 135.177 184.619 135.819C184.305 136.461 183.865 136.96 183.299 137.317C182.737 137.674 182.081 137.852 181.331 137.852ZM181.331 136.706C181.9 136.706 182.369 136.56 182.737 136.268C183.104 135.976 183.377 135.592 183.553 135.116C183.73 134.64 183.818 134.125 183.818 133.57C183.818 133.014 183.73 132.497 183.553 132.018C183.377 131.538 183.104 131.151 182.737 130.855C182.369 130.559 181.9 130.412 181.331 130.412C180.761 130.412 180.293 130.559 179.925 130.855C179.557 131.151 179.285 131.538 179.108 132.018C178.932 132.497 178.843 133.014 178.843 133.57C178.843 134.125 178.932 134.64 179.108 135.116C179.285 135.592 179.557 135.976 179.925 136.268C180.293 136.56 180.761 136.706 181.331 136.706ZM191.325 137.679V129.373H192.558V130.671H192.666C192.839 130.228 193.119 129.883 193.505 129.638C193.89 129.39 194.353 129.265 194.894 129.265C195.442 129.265 195.898 129.39 196.262 129.638C196.63 129.883 196.917 130.228 197.122 130.671H197.209C197.421 130.242 197.74 129.902 198.166 129.649C198.591 129.393 199.101 129.265 199.696 129.265C200.439 129.265 201.046 129.498 201.518 129.963C201.991 130.424 202.227 131.143 202.227 132.12V137.679H200.951V132.12C200.951 131.508 200.783 131.07 200.448 130.806C200.113 130.543 199.718 130.412 199.264 130.412C198.68 130.412 198.227 130.588 197.906 130.942C197.585 131.291 197.425 131.735 197.425 132.272V137.679H196.127V131.991C196.127 131.518 195.974 131.138 195.668 130.85C195.361 130.558 194.966 130.412 194.483 130.412C194.152 130.412 193.842 130.5 193.553 130.677C193.268 130.853 193.038 131.098 192.861 131.412C192.688 131.722 192.601 132.081 192.601 132.488V137.679H191.325ZM205.085 140.794C204.868 140.794 204.676 140.776 204.506 140.74C204.337 140.708 204.22 140.675 204.155 140.643L204.479 139.518C204.789 139.597 205.063 139.626 205.301 139.604C205.539 139.583 205.75 139.476 205.934 139.285C206.121 139.098 206.292 138.793 206.447 138.371L206.685 137.723L203.614 129.373H204.998L207.291 135.992H207.378L209.67 129.373H211.055L207.529 138.891C207.37 139.32 207.174 139.675 206.94 139.956C206.705 140.241 206.433 140.452 206.123 140.589C205.817 140.726 205.47 140.794 205.085 140.794ZM218.298 132.683V137.679H217.022V126.605H218.298V130.671H218.406C218.601 130.242 218.893 129.902 219.282 129.649C219.675 129.393 220.198 129.265 220.85 129.265C221.416 129.265 221.912 129.379 222.337 129.606C222.763 129.829 223.093 130.174 223.327 130.639C223.565 131.1 223.684 131.688 223.684 132.402V137.679H222.408V132.488C222.408 131.828 222.236 131.318 221.894 130.958C221.555 130.594 221.085 130.412 220.483 130.412C220.064 130.412 219.69 130.5 219.358 130.677C219.03 130.853 218.77 131.111 218.579 131.45C218.392 131.789 218.298 132.2 218.298 132.683ZM229.393 137.852C228.643 137.852 227.985 137.674 227.419 137.317C226.857 136.96 226.417 136.461 226.1 135.819C225.786 135.177 225.629 134.428 225.629 133.57C225.629 132.704 225.786 131.949 226.1 131.304C226.417 130.659 226.857 130.157 227.419 129.801C227.985 129.444 228.643 129.265 229.393 129.265C230.143 129.265 230.799 129.444 231.361 129.801C231.927 130.157 232.367 130.659 232.681 131.304C232.998 131.949 233.157 132.704 233.157 133.57C233.157 134.428 232.998 135.177 232.681 135.819C232.367 136.461 231.927 136.96 231.361 137.317C230.799 137.674 230.143 137.852 229.393 137.852ZM229.393 136.706C229.962 136.706 230.431 136.56 230.799 136.268C231.167 135.976 231.439 135.592 231.615 135.116C231.792 134.64 231.88 134.125 231.88 133.57C231.88 133.014 231.792 132.497 231.615 132.018C231.439 131.538 231.167 131.151 230.799 130.855C230.431 130.559 229.962 130.412 229.393 130.412C228.823 130.412 228.355 130.559 227.987 130.855C227.619 131.151 227.347 131.538 227.17 132.018C226.994 132.497 226.905 133.014 226.905 133.57C226.905 134.125 226.994 134.64 227.17 135.116C227.347 135.592 227.619 135.976 227.987 136.268C228.355 136.56 228.823 136.706 229.393 136.706ZM240.339 134.283V129.373H241.615V137.679H240.339V136.273H240.253C240.058 136.695 239.755 137.054 239.344 137.349C238.933 137.641 238.414 137.787 237.787 137.787C237.268 137.787 236.806 137.674 236.402 137.447C235.999 137.216 235.681 136.87 235.451 136.409C235.22 135.944 235.105 135.358 235.105 134.651V129.373H236.381V134.565C236.381 135.17 236.55 135.653 236.889 136.014C237.232 136.374 237.668 136.555 238.198 136.555C238.515 136.555 238.838 136.473 239.166 136.311C239.497 136.149 239.775 135.9 239.998 135.565C240.226 135.23 240.339 134.803 240.339 134.283ZM249.836 131.234L248.69 131.558C248.618 131.367 248.511 131.181 248.371 131.001C248.234 130.817 248.046 130.666 247.808 130.547C247.57 130.428 247.266 130.368 246.894 130.368C246.386 130.368 245.962 130.486 245.624 130.72C245.288 130.951 245.121 131.244 245.121 131.601C245.121 131.919 245.236 132.169 245.467 132.353C245.697 132.537 246.058 132.69 246.548 132.813L247.781 133.115C248.524 133.296 249.077 133.571 249.441 133.943C249.805 134.31 249.987 134.784 249.987 135.365C249.987 135.841 249.85 136.266 249.576 136.641C249.306 137.016 248.928 137.312 248.441 137.528C247.954 137.744 247.388 137.852 246.743 137.852C245.896 137.852 245.195 137.669 244.639 137.301C244.084 136.933 243.733 136.396 243.585 135.689L244.796 135.387C244.912 135.834 245.13 136.169 245.451 136.392C245.775 136.616 246.199 136.728 246.721 136.728C247.316 136.728 247.788 136.601 248.138 136.349C248.491 136.093 248.668 135.787 248.668 135.43C248.668 135.141 248.567 134.9 248.365 134.705C248.163 134.507 247.853 134.359 247.435 134.262L246.051 133.937C245.29 133.757 244.731 133.478 244.374 133.099C244.021 132.717 243.844 132.239 243.844 131.666C243.844 131.198 243.976 130.783 244.239 130.422C244.506 130.062 244.868 129.779 245.326 129.573C245.788 129.368 246.31 129.265 246.894 129.265C247.716 129.265 248.362 129.445 248.83 129.806C249.302 130.166 249.638 130.642 249.836 131.234ZM251.908 137.679V129.373H253.185V137.679H251.908ZM252.557 127.989C252.309 127.989 252.094 127.904 251.914 127.735C251.737 127.565 251.649 127.362 251.649 127.124C251.649 126.886 251.737 126.682 251.914 126.513C252.094 126.343 252.309 126.259 252.557 126.259C252.806 126.259 253.019 126.343 253.195 126.513C253.376 126.682 253.466 126.886 253.466 127.124C253.466 127.362 253.376 127.565 253.195 127.735C253.019 127.904 252.806 127.989 252.557 127.989ZM256.798 132.683V137.679H255.522V129.373H256.755V130.671H256.863C257.058 130.249 257.353 129.911 257.75 129.655C258.146 129.395 258.658 129.265 259.286 129.265C259.848 129.265 260.34 129.381 260.762 129.611C261.184 129.838 261.512 130.184 261.746 130.65C261.98 131.111 262.098 131.695 262.098 132.402V137.679H260.821V132.488C260.821 131.836 260.652 131.327 260.313 130.963C259.974 130.595 259.509 130.412 258.918 130.412C258.511 130.412 258.146 130.5 257.826 130.677C257.508 130.853 257.258 131.111 257.074 131.45C256.89 131.789 256.798 132.2 256.798 132.683ZM267.782 140.967C267.166 140.967 266.636 140.888 266.192 140.729C265.749 140.574 265.379 140.369 265.084 140.113C264.792 139.86 264.559 139.59 264.386 139.302L265.403 138.588C265.518 138.739 265.664 138.912 265.841 139.107C266.018 139.305 266.259 139.476 266.566 139.621C266.876 139.768 267.281 139.842 267.782 139.842C268.453 139.842 269.006 139.68 269.442 139.356C269.879 139.031 270.097 138.523 270.097 137.831V136.144H269.989C269.895 136.295 269.761 136.482 269.588 136.706C269.419 136.926 269.174 137.122 268.853 137.295C268.536 137.465 268.107 137.55 267.566 137.55C266.895 137.55 266.293 137.391 265.76 137.074C265.23 136.756 264.81 136.295 264.5 135.689C264.193 135.084 264.04 134.348 264.04 133.483C264.04 132.632 264.19 131.891 264.489 131.261C264.788 130.626 265.205 130.136 265.738 129.79C266.272 129.44 266.888 129.265 267.588 129.265C268.128 129.265 268.557 129.355 268.875 129.536C269.195 129.712 269.441 129.914 269.61 130.141C269.783 130.365 269.916 130.549 270.01 130.693H270.14V129.373H271.373V137.917C271.373 138.631 271.211 139.211 270.886 139.658C270.565 140.109 270.133 140.439 269.588 140.648C269.048 140.861 268.446 140.967 267.782 140.967ZM267.739 136.403C268.251 136.403 268.683 136.286 269.037 136.052C269.39 135.817 269.659 135.48 269.843 135.04C270.026 134.601 270.118 134.074 270.118 133.461C270.118 132.863 270.028 132.335 269.848 131.877C269.668 131.419 269.401 131.061 269.048 130.801C268.694 130.541 268.258 130.412 267.739 130.412C267.198 130.412 266.748 130.549 266.387 130.823C266.03 131.097 265.762 131.464 265.581 131.926C265.405 132.387 265.316 132.899 265.316 133.461C265.316 134.038 265.407 134.548 265.587 134.992C265.771 135.432 266.041 135.778 266.398 136.03C266.758 136.279 267.205 136.403 267.739 136.403Z" fill="#7F7F7F"/>
<path d="M130.713 116.679V108.373H132.265V109.725H132.368C132.541 109.267 132.824 108.911 133.217 108.655C133.61 108.395 134.08 108.265 134.628 108.265C135.183 108.265 135.648 108.395 136.023 108.655C136.402 108.914 136.681 109.271 136.861 109.725H136.948C137.146 109.282 137.462 108.929 137.894 108.665C138.327 108.399 138.842 108.265 139.441 108.265C140.194 108.265 140.809 108.501 141.285 108.974C141.764 109.446 142.004 110.158 142.004 111.11V116.679H140.387V111.261C140.387 110.699 140.234 110.291 139.927 110.039C139.621 109.787 139.255 109.66 138.83 109.66C138.303 109.66 137.894 109.823 137.602 110.147C137.31 110.468 137.164 110.881 137.164 111.385V116.679H135.553V111.158C135.553 110.708 135.412 110.345 135.131 110.071C134.85 109.797 134.484 109.66 134.033 109.66C133.727 109.66 133.444 109.741 133.184 109.904C132.928 110.062 132.721 110.284 132.562 110.569C132.407 110.854 132.33 111.183 132.33 111.558V116.679H130.713ZM144.896 119.794C144.654 119.794 144.434 119.774 144.236 119.735C144.038 119.699 143.89 119.659 143.792 119.616L144.182 118.291C144.477 118.37 144.741 118.404 144.971 118.394C145.202 118.383 145.406 118.296 145.582 118.134C145.763 117.972 145.921 117.707 146.058 117.339L146.258 116.787L143.219 108.373H144.95L147.053 114.819H147.14L149.243 108.373H150.979L147.556 117.788C147.397 118.22 147.196 118.586 146.95 118.886C146.705 119.188 146.413 119.416 146.074 119.567C145.736 119.718 145.343 119.794 144.896 119.794ZM160.027 116.847C159.249 116.847 158.569 116.669 157.989 116.312C157.408 115.955 156.958 115.455 156.637 114.814C156.316 114.172 156.155 113.422 156.155 112.564C156.155 111.703 156.316 110.949 156.637 110.304C156.958 109.659 157.408 109.157 157.989 108.801C158.569 108.444 159.249 108.265 160.027 108.265C160.806 108.265 161.485 108.444 162.066 108.801C162.646 109.157 163.097 109.659 163.418 110.304C163.739 110.949 163.899 111.703 163.899 112.564C163.899 113.422 163.739 114.172 163.418 114.814C163.097 115.455 162.646 115.955 162.066 116.312C161.485 116.669 160.806 116.847 160.027 116.847ZM160.033 115.49C160.537 115.49 160.956 115.356 161.287 115.09C161.619 114.823 161.864 114.468 162.023 114.024C162.185 113.581 162.266 113.092 162.266 112.559C162.266 112.029 162.185 111.542 162.023 111.099C161.864 110.652 161.619 110.293 161.287 110.023C160.956 109.752 160.537 109.617 160.033 109.617C159.524 109.617 159.103 109.752 158.767 110.023C158.436 110.293 158.189 110.652 158.026 111.099C157.868 111.542 157.789 112.029 157.789 112.559C157.789 113.092 157.868 113.581 158.026 114.024C158.189 114.468 158.436 114.823 158.767 115.09C159.103 115.356 159.524 115.49 160.033 115.49ZM167.252 116.679L164.807 108.373H166.478L168.106 114.473H168.187L169.82 108.373H171.491L173.113 114.446H173.195L174.811 108.373H176.482L174.044 116.679H172.394L170.707 110.682H170.583L168.896 116.679H167.252ZM179.634 111.748V116.679H178.017V108.373H179.569V109.725H179.671C179.862 109.285 180.162 108.932 180.569 108.665C180.98 108.399 181.497 108.265 182.121 108.265C182.687 108.265 183.183 108.384 183.608 108.622C184.033 108.856 184.363 109.206 184.598 109.671C184.832 110.136 184.949 110.711 184.949 111.396V116.679H183.332V111.591C183.332 110.989 183.175 110.518 182.862 110.179C182.548 109.837 182.117 109.666 181.569 109.666C181.195 109.666 180.861 109.747 180.569 109.909C180.281 110.071 180.052 110.309 179.882 110.623C179.716 110.933 179.634 111.308 179.634 111.748ZM195.1 108.373V109.671H190.407V108.373H195.1ZM191.694 116.679V107.411C191.694 106.892 191.807 106.461 192.034 106.118C192.261 105.772 192.562 105.515 192.937 105.345C193.312 105.172 193.72 105.086 194.159 105.086C194.484 105.086 194.762 105.113 194.992 105.167C195.223 105.217 195.394 105.264 195.506 105.307L195.127 106.616C195.052 106.594 194.954 106.569 194.835 106.54C194.716 106.508 194.572 106.492 194.403 106.492C194.01 106.492 193.729 106.589 193.559 106.784C193.393 106.978 193.311 107.259 193.311 107.627V116.679H191.694ZM202.03 113.235V108.373H203.652V116.679H202.063V115.241H201.976C201.785 115.684 201.479 116.054 201.057 116.349C200.639 116.641 200.118 116.787 199.494 116.787C198.96 116.787 198.488 116.67 198.077 116.436C197.67 116.198 197.349 115.847 197.115 115.382C196.884 114.916 196.769 114.341 196.769 113.657V108.373H198.385V113.462C198.385 114.028 198.542 114.478 198.856 114.814C199.17 115.149 199.577 115.317 200.078 115.317C200.381 115.317 200.682 115.241 200.981 115.09C201.284 114.938 201.534 114.709 201.733 114.403C201.935 114.096 202.034 113.707 202.03 113.235ZM205.825 116.679V108.373H207.388V109.693H207.474C207.626 109.246 207.892 108.894 208.274 108.638C208.66 108.379 209.096 108.249 209.583 108.249C209.684 108.249 209.803 108.253 209.94 108.26C210.081 108.267 210.191 108.276 210.27 108.287V109.833C210.205 109.815 210.09 109.796 209.924 109.774C209.758 109.749 209.592 109.736 209.426 109.736C209.044 109.736 208.703 109.817 208.404 109.979C208.109 110.138 207.874 110.36 207.701 110.645C207.528 110.926 207.442 111.247 207.442 111.607V116.679H205.825ZM213.286 111.748V116.679H211.669V108.373H213.221V109.725H213.324C213.515 109.285 213.814 108.932 214.221 108.665C214.632 108.399 215.15 108.265 215.773 108.265C216.339 108.265 216.835 108.384 217.26 108.622C217.686 108.856 218.016 109.206 218.25 109.671C218.484 110.136 218.601 110.711 218.601 111.396V116.679H216.985V111.591C216.985 110.989 216.828 110.518 216.514 110.179C216.201 109.837 215.77 109.666 215.222 109.666C214.847 109.666 214.513 109.747 214.221 109.909C213.933 110.071 213.704 110.309 213.535 110.623C213.369 110.933 213.286 111.308 213.286 111.748ZM220.77 116.679V108.373H222.387V116.679H220.77ZM221.586 107.092C221.305 107.092 221.064 106.998 220.862 106.811C220.664 106.62 220.564 106.392 220.564 106.129C220.564 105.862 220.664 105.635 220.862 105.448C221.064 105.257 221.305 105.161 221.586 105.161C221.868 105.161 222.107 105.257 222.306 105.448C222.508 105.635 222.608 105.862 222.608 106.129C222.608 106.392 222.508 106.62 222.306 106.811C222.107 106.998 221.868 107.092 221.586 107.092ZM228.439 108.373V109.671H223.902V108.373H228.439ZM225.119 106.383H226.736V114.241C226.736 114.554 226.783 114.79 226.876 114.949C226.97 115.104 227.091 115.21 227.239 115.268C227.39 115.322 227.554 115.349 227.731 115.349C227.861 115.349 227.974 115.34 228.071 115.322C228.169 115.304 228.244 115.29 228.299 115.279L228.591 116.614C228.497 116.65 228.363 116.687 228.19 116.723C228.017 116.762 227.801 116.784 227.541 116.787C227.116 116.795 226.72 116.719 226.352 116.56C225.984 116.402 225.687 116.157 225.46 115.825C225.232 115.493 225.119 115.077 225.119 114.576V106.383ZM235.489 113.235V108.373H237.111V116.679H235.522V115.241H235.435C235.244 115.684 234.938 116.054 234.516 116.349C234.098 116.641 233.577 116.787 232.953 116.787C232.42 116.787 231.947 116.67 231.536 116.436C231.129 116.198 230.808 115.847 230.574 115.382C230.343 114.916 230.228 114.341 230.228 113.657V108.373H231.845V113.462C231.845 114.028 232.001 114.478 232.315 114.814C232.629 115.149 233.036 115.317 233.537 115.317C233.84 115.317 234.141 115.241 234.44 115.09C234.743 114.938 234.994 114.709 235.192 114.403C235.394 114.096 235.493 113.707 235.489 113.235ZM239.284 116.679V108.373H240.847V109.693H240.933C241.085 109.246 241.351 108.894 241.734 108.638C242.119 108.379 242.555 108.249 243.042 108.249C243.143 108.249 243.262 108.253 243.399 108.26C243.54 108.267 243.65 108.276 243.729 108.287V109.833C243.664 109.815 243.549 109.796 243.383 109.774C243.217 109.749 243.051 109.736 242.885 109.736C242.503 109.736 242.163 109.817 241.863 109.979C241.568 110.138 241.333 110.36 241.16 110.645C240.987 110.926 240.901 111.247 240.901 111.607V116.679H239.284ZM248.41 116.847C247.592 116.847 246.887 116.672 246.296 116.322C245.709 115.969 245.254 115.473 244.933 114.835C244.616 114.194 244.458 113.442 244.458 112.58C244.458 111.73 244.616 110.98 244.933 110.331C245.254 109.682 245.701 109.175 246.274 108.811C246.851 108.447 247.525 108.265 248.297 108.265C248.766 108.265 249.22 108.343 249.66 108.498C250.099 108.653 250.494 108.896 250.844 109.228C251.194 109.559 251.469 109.99 251.671 110.52C251.873 111.046 251.974 111.686 251.974 112.44V113.013H245.371V111.802H250.39C250.39 111.376 250.303 111 250.13 110.672C249.957 110.34 249.714 110.079 249.4 109.887C249.09 109.696 248.726 109.601 248.308 109.601C247.853 109.601 247.457 109.713 247.118 109.936C246.783 110.156 246.523 110.444 246.339 110.801C246.159 111.155 246.069 111.539 246.069 111.953V112.899C246.069 113.455 246.166 113.927 246.361 114.316C246.559 114.706 246.835 115.003 247.188 115.208C247.542 115.41 247.954 115.511 248.427 115.511C248.733 115.511 249.013 115.468 249.265 115.382C249.517 115.291 249.735 115.158 249.919 114.981C250.103 114.805 250.244 114.587 250.341 114.327L251.871 114.603C251.749 115.053 251.529 115.448 251.212 115.787C250.898 116.122 250.503 116.384 250.027 116.571C249.555 116.755 249.016 116.847 248.41 116.847ZM260.215 116.863C259.689 116.863 259.213 116.766 258.788 116.571C258.362 116.373 258.025 116.086 257.776 115.711C257.531 115.336 257.409 114.877 257.409 114.332C257.409 113.864 257.499 113.478 257.679 113.175C257.859 112.872 258.103 112.633 258.409 112.456C258.715 112.279 259.058 112.146 259.436 112.056C259.815 111.966 260.201 111.897 260.594 111.85C261.091 111.793 261.495 111.746 261.805 111.71C262.115 111.67 262.34 111.607 262.481 111.521C262.621 111.434 262.692 111.293 262.692 111.099V111.061C262.692 110.589 262.558 110.223 262.292 109.963C262.028 109.704 261.635 109.574 261.113 109.574C260.568 109.574 260.139 109.695 259.826 109.936C259.516 110.174 259.301 110.439 259.182 110.731L257.663 110.385C257.843 109.88 258.106 109.473 258.452 109.163C258.802 108.849 259.204 108.622 259.658 108.482C260.112 108.337 260.59 108.265 261.091 108.265C261.423 108.265 261.774 108.305 262.146 108.384C262.52 108.46 262.87 108.6 263.195 108.806C263.523 109.011 263.791 109.305 264 109.687C264.209 110.066 264.314 110.558 264.314 111.164V116.679H262.735V115.544H262.67C262.566 115.753 262.409 115.958 262.2 116.16C261.991 116.362 261.722 116.53 261.394 116.663C261.066 116.796 260.673 116.863 260.215 116.863ZM260.567 115.565C261.014 115.565 261.396 115.477 261.713 115.3C262.034 115.124 262.277 114.893 262.443 114.608C262.612 114.32 262.697 114.012 262.697 113.684V112.613C262.639 112.671 262.528 112.725 262.362 112.775C262.2 112.822 262.014 112.863 261.805 112.899C261.596 112.932 261.392 112.963 261.194 112.991C260.996 113.017 260.83 113.038 260.696 113.056C260.383 113.096 260.096 113.163 259.837 113.256C259.581 113.35 259.375 113.485 259.22 113.662C259.069 113.835 258.993 114.066 258.993 114.354C258.993 114.754 259.141 115.057 259.436 115.263C259.732 115.464 260.109 115.565 260.567 115.565ZM268.084 111.748V116.679H266.468V108.373H268.02V109.725H268.122C268.313 109.285 268.613 108.932 269.02 108.665C269.431 108.399 269.948 108.265 270.572 108.265C271.138 108.265 271.634 108.384 272.059 108.622C272.484 108.856 272.814 109.206 273.048 109.671C273.283 110.136 273.4 110.711 273.4 111.396V116.679H271.783V111.591C271.783 110.989 271.626 110.518 271.313 110.179C270.999 109.837 270.568 109.666 270.02 109.666C269.645 109.666 269.312 109.747 269.02 109.909C268.731 110.071 268.503 110.309 268.333 110.623C268.167 110.933 268.084 111.308 268.084 111.748ZM278.678 116.842C278.007 116.842 277.409 116.67 276.882 116.328C276.36 115.982 275.949 115.49 275.65 114.852C275.354 114.21 275.206 113.44 275.206 112.543C275.206 111.645 275.356 110.877 275.655 110.239C275.958 109.601 276.372 109.112 276.899 108.774C277.425 108.435 278.022 108.265 278.689 108.265C279.204 108.265 279.619 108.352 279.932 108.525C280.25 108.694 280.495 108.892 280.668 109.12C280.844 109.347 280.981 109.547 281.079 109.72H281.176V105.605H282.793V116.679H281.214V115.387H281.079C280.981 115.564 280.841 115.765 280.657 115.993C280.477 116.22 280.228 116.418 279.911 116.587C279.593 116.757 279.182 116.842 278.678 116.842ZM279.035 115.463C279.5 115.463 279.893 115.34 280.213 115.095C280.538 114.846 280.783 114.502 280.949 114.062C281.118 113.622 281.203 113.11 281.203 112.526C281.203 111.95 281.12 111.445 280.954 111.012C280.788 110.58 280.545 110.243 280.224 110.001C279.903 109.759 279.507 109.639 279.035 109.639C278.548 109.639 278.142 109.765 277.818 110.017C277.493 110.27 277.248 110.614 277.083 111.05C276.92 111.486 276.839 111.978 276.839 112.526C276.839 113.082 276.922 113.581 277.088 114.024C277.254 114.468 277.499 114.819 277.823 115.079C278.151 115.335 278.555 115.463 279.035 115.463ZM86.2084 137.847C85.3901 137.847 84.6853 137.672 84.0941 137.322C83.5065 136.969 83.0522 136.473 82.7314 135.835C82.4142 135.194 82.2555 134.442 82.2555 133.58C82.2555 132.73 82.4142 131.98 82.7314 131.331C83.0522 130.682 83.4993 130.175 84.0725 129.811C84.6493 129.447 85.3234 129.265 86.0949 129.265C86.5635 129.265 87.0178 129.343 87.4576 129.498C87.8974 129.653 88.2921 129.896 88.6418 130.228C88.9915 130.559 89.2673 130.99 89.4692 131.52C89.6711 132.046 89.772 132.686 89.772 133.44V134.013H83.1694V132.802H88.1876C88.1876 132.376 88.1011 132 87.928 131.672C87.755 131.34 87.5117 131.079 87.198 130.887C86.888 130.696 86.5239 130.601 86.1057 130.601C85.6515 130.601 85.2549 130.713 84.916 130.936C84.5808 131.156 84.3212 131.444 84.1374 131.801C83.9571 132.155 83.867 132.539 83.867 132.953V133.899C83.867 134.455 83.9643 134.927 84.159 135.316C84.3573 135.706 84.633 136.003 84.9863 136.208C85.3396 136.41 85.7524 136.511 86.2247 136.511C86.5311 136.511 86.8105 136.468 87.0628 136.382C87.3152 136.291 87.5333 136.158 87.7171 135.981C87.901 135.805 88.0416 135.587 88.1389 135.327L89.6693 135.603C89.5467 136.053 89.3268 136.448 89.0095 136.787C88.6959 137.122 88.3012 137.384 87.8253 137.571C87.353 137.755 86.8141 137.847 86.2084 137.847ZM97.1735 140.794V136.387H97.0762C96.9789 136.564 96.8383 136.765 96.6544 136.993C96.4742 137.22 96.2254 137.418 95.9082 137.587C95.5909 137.757 95.18 137.842 94.6753 137.842C94.0047 137.842 93.4063 137.67 92.88 137.328C92.3572 136.982 91.9463 136.49 91.6471 135.852C91.3514 135.21 91.2036 134.44 91.2036 133.543C91.2036 132.645 91.3532 131.877 91.6525 131.239C91.9553 130.601 92.3699 130.112 92.8962 129.774C93.4225 129.435 94.0192 129.265 94.6861 129.265C95.2016 129.265 95.6162 129.352 95.9298 129.525C96.2471 129.694 96.4922 129.892 96.6652 130.12C96.8419 130.347 96.9789 130.547 97.0762 130.72H97.2114V129.373H98.7904V140.794H97.1735ZM95.0322 136.463C95.4972 136.463 95.8902 136.34 96.211 136.095C96.5355 135.846 96.7806 135.502 96.9464 135.062C97.1159 134.622 97.2006 134.11 97.2006 133.526C97.2006 132.95 97.1177 132.445 96.9518 132.012C96.786 131.58 96.5427 131.243 96.2218 131.001C95.901 130.759 95.5044 130.639 95.0322 130.639C94.5455 130.639 94.1399 130.765 93.8155 131.017C93.491 131.27 93.2459 131.614 93.08 132.05C92.9178 132.486 92.8367 132.978 92.8367 133.526C92.8367 134.082 92.9196 134.581 93.0855 135.024C93.2513 135.468 93.4964 135.819 93.8209 136.079C94.1489 136.335 94.5527 136.463 95.0322 136.463ZM106.226 134.235V129.373H107.848V137.679H106.258V136.241H106.172C105.981 136.684 105.674 137.054 105.252 137.349C104.834 137.641 104.313 137.787 103.69 137.787C103.156 137.787 102.684 137.67 102.273 137.436C101.865 137.198 101.545 136.847 101.31 136.382C101.08 135.916 100.964 135.341 100.964 134.657V129.373H102.581V134.462C102.581 135.028 102.738 135.478 103.052 135.814C103.365 136.149 103.773 136.317 104.274 136.317C104.576 136.317 104.877 136.241 105.177 136.09C105.479 135.938 105.73 135.709 105.928 135.403C106.13 135.096 106.229 134.707 106.226 134.235ZM110.02 137.679V129.373H111.637V137.679H110.02ZM110.837 128.092C110.556 128.092 110.314 127.998 110.112 127.811C109.914 127.62 109.815 127.392 109.815 127.129C109.815 126.862 109.914 126.635 110.112 126.448C110.314 126.257 110.556 126.161 110.837 126.161C111.118 126.161 111.358 126.257 111.556 126.448C111.758 126.635 111.859 126.862 111.859 127.129C111.859 127.392 111.758 127.62 111.556 127.811C111.358 127.998 111.118 128.092 110.837 128.092ZM113.812 140.794V129.373H115.391V130.72H115.527C115.62 130.547 115.756 130.347 115.932 130.12C116.109 129.892 116.354 129.694 116.668 129.525C116.981 129.352 117.396 129.265 117.911 129.265C118.582 129.265 119.18 129.435 119.707 129.774C120.233 130.112 120.646 130.601 120.945 131.239C121.248 131.877 121.399 132.645 121.399 133.543C121.399 134.44 121.25 135.21 120.95 135.852C120.651 136.49 120.24 136.982 119.718 137.328C119.195 137.67 118.598 137.842 117.928 137.842C117.423 137.842 117.01 137.757 116.689 137.587C116.372 137.418 116.123 137.22 115.943 136.993C115.763 136.765 115.624 136.564 115.527 136.387H115.429V140.794H113.812ZM115.397 133.526C115.397 134.11 115.482 134.622 115.651 135.062C115.82 135.502 116.066 135.846 116.386 136.095C116.707 136.34 117.1 136.463 117.565 136.463C118.048 136.463 118.452 136.335 118.777 136.079C119.101 135.819 119.346 135.468 119.512 135.024C119.681 134.581 119.766 134.082 119.766 133.526C119.766 132.978 119.683 132.486 119.517 132.05C119.355 131.614 119.11 131.27 118.782 131.017C118.458 130.765 118.052 130.639 117.565 130.639C117.097 130.639 116.7 130.759 116.376 131.001C116.055 131.243 115.811 131.58 115.646 132.012C115.48 132.445 115.397 132.95 115.397 133.526ZM123.211 137.679V129.373H124.763V130.725H124.865C125.039 130.267 125.322 129.911 125.714 129.655C126.107 129.395 126.578 129.265 127.126 129.265C127.681 129.265 128.146 129.395 128.521 129.655C128.899 129.914 129.179 130.271 129.359 130.725H129.446C129.644 130.282 129.959 129.929 130.392 129.665C130.825 129.399 131.34 129.265 131.939 129.265C132.692 129.265 133.307 129.501 133.782 129.974C134.262 130.446 134.502 131.158 134.502 132.11V137.679H132.885V132.261C132.885 131.699 132.732 131.291 132.425 131.039C132.119 130.787 131.753 130.66 131.327 130.66C130.801 130.66 130.392 130.823 130.1 131.147C129.808 131.468 129.662 131.881 129.662 132.385V137.679H128.051V132.158C128.051 131.708 127.91 131.345 127.629 131.071C127.348 130.797 126.982 130.66 126.531 130.66C126.225 130.66 125.942 130.741 125.682 130.904C125.426 131.062 125.219 131.284 125.06 131.569C124.905 131.854 124.828 132.183 124.828 132.558V137.679H123.211ZM140.249 137.847C139.43 137.847 138.725 137.672 138.134 137.322C137.547 136.969 137.092 136.473 136.771 135.835C136.454 135.194 136.296 134.442 136.296 133.58C136.296 132.73 136.454 131.98 136.771 131.331C137.092 130.682 137.539 130.175 138.113 129.811C138.689 129.447 139.363 129.265 140.135 129.265C140.604 129.265 141.058 129.343 141.498 129.498C141.937 129.653 142.332 129.896 142.682 130.228C143.032 130.559 143.307 130.99 143.509 131.52C143.711 132.046 143.812 132.686 143.812 133.44V134.013H137.209V132.802H142.228C142.228 132.376 142.141 132 141.968 131.672C141.795 131.34 141.552 131.079 141.238 130.887C140.928 130.696 140.564 130.601 140.146 130.601C139.692 130.601 139.295 130.713 138.956 130.936C138.621 131.156 138.361 131.444 138.177 131.801C137.997 132.155 137.907 132.539 137.907 132.953V133.899C137.907 134.455 138.004 134.927 138.199 135.316C138.397 135.706 138.673 136.003 139.026 136.208C139.38 136.41 139.792 136.511 140.265 136.511C140.571 136.511 140.851 136.468 141.103 136.382C141.355 136.291 141.573 136.158 141.757 135.981C141.941 135.805 142.082 135.587 142.179 135.327L143.709 135.603C143.587 136.053 143.367 136.448 143.05 136.787C142.736 137.122 142.341 137.384 141.865 137.571C141.393 137.755 140.854 137.847 140.249 137.847ZM147.223 132.748V137.679H145.606V129.373H147.158V130.725H147.261C147.452 130.285 147.751 129.932 148.158 129.665C148.569 129.399 149.087 129.265 149.71 129.265C150.276 129.265 150.772 129.384 151.197 129.622C151.623 129.856 151.953 130.206 152.187 130.671C152.421 131.136 152.538 131.711 152.538 132.396V137.679H150.922V132.591C150.922 131.989 150.765 131.518 150.451 131.179C150.138 130.837 149.707 130.666 149.159 130.666C148.784 130.666 148.45 130.747 148.158 130.909C147.87 131.071 147.641 131.309 147.472 131.623C147.306 131.933 147.223 132.308 147.223 132.748ZM158.584 129.373V130.671H154.047V129.373H158.584ZM155.264 127.383H156.881V135.241C156.881 135.554 156.928 135.79 157.021 135.949C157.115 136.104 157.236 136.21 157.384 136.268C157.535 136.322 157.699 136.349 157.876 136.349C158.005 136.349 158.119 136.34 158.216 136.322C158.314 136.304 158.389 136.29 158.443 136.279L158.735 137.614C158.642 137.65 158.508 137.687 158.335 137.723C158.162 137.762 157.946 137.784 157.686 137.787C157.261 137.795 156.864 137.719 156.497 137.56C156.129 137.402 155.832 137.157 155.605 136.825C155.377 136.493 155.264 136.077 155.264 135.576V127.383ZM166.463 131.401L164.997 131.661C164.936 131.473 164.839 131.295 164.705 131.125C164.576 130.956 164.399 130.817 164.175 130.709C163.952 130.601 163.673 130.547 163.337 130.547C162.879 130.547 162.497 130.65 162.191 130.855C161.884 131.057 161.731 131.318 161.731 131.639C161.731 131.917 161.834 132.14 162.039 132.31C162.245 132.479 162.577 132.618 163.034 132.726L164.354 133.029C165.118 133.205 165.688 133.478 166.063 133.845C166.438 134.213 166.625 134.691 166.625 135.278C166.625 135.776 166.481 136.219 166.192 136.609C165.908 136.994 165.509 137.297 164.997 137.517C164.489 137.737 163.9 137.847 163.229 137.847C162.299 137.847 161.54 137.649 160.953 137.252C160.365 136.852 160.004 136.284 159.871 135.549L161.434 135.311C161.531 135.718 161.731 136.026 162.034 136.236C162.337 136.441 162.732 136.544 163.218 136.544C163.748 136.544 164.172 136.434 164.489 136.214C164.806 135.99 164.965 135.718 164.965 135.397C164.965 135.138 164.868 134.92 164.673 134.743C164.482 134.566 164.188 134.433 163.792 134.343L162.386 134.035C161.61 133.858 161.037 133.577 160.666 133.191C160.298 132.805 160.114 132.317 160.114 131.726C160.114 131.235 160.251 130.806 160.525 130.439C160.799 130.071 161.178 129.784 161.661 129.579C162.144 129.37 162.697 129.265 163.321 129.265C164.219 129.265 164.925 129.46 165.441 129.849C165.956 130.235 166.297 130.752 166.463 131.401Z" fill="#006D77"/>
</g>
<defs>
<filter id="filter0_d_2404_1768" x="0" y="0" width="354.083" height="198" filterUnits="userSpaceOnUse" color-interpolation-filters="sRGB">
<feFlood flood-opacity="0" result="BackgroundImageFix"/>
<feColorMatrix in="SourceAlpha" type="matrix" values="0 0 0 0 0 0 0 0 0 0 0 0 0 0 0 0 0 0 127 0" result="hardAlpha"/>
<feOffset dy="4"/>
<feGaussianBlur stdDeviation="15"/>
<feComposite in2="hardAlpha" operator="out"/>
<feColorMatrix type="matrix" values="0 0 0 0 0 0 0 0 0 0 0 0 0 0 0 0 0 0 0.05 0"/>
<feBlend mode="normal" in2="BackgroundImageFix" result="effect1_dropShadow_2404_1768"/>
<feBlend mode="normal" in="SourceGraphic" in2="effect1_dropShadow_2404_1768" result="shape"/>
</filter>
</defs>
</svg>
