<svg width="119" height="47" viewBox="0 0 119 47" fill="none" xmlns="http://www.w3.org/2000/svg">
<g clip-path="url(#clip0_2019_697)">
<path d="M59.1914 3C60.5211 3 61.6761 3.14514 62.6661 3.43043C63.656 3.72072 64.4228 4.12112 64.9712 4.63664C65.5196 5.15215 65.7913 5.77277 65.7913 6.49349C65.7913 6.97397 65.6506 7.42442 65.374 7.84484C65.0925 8.26527 64.6849 8.47547 64.151 8.47547C63.7774 8.47547 63.4716 8.42042 63.2241 8.31531C62.9766 8.21021 62.7631 8.07007 62.5787 7.8999C62.3943 7.73473 62.1711 7.57457 61.9139 7.42943C61.6809 7.28428 61.3267 7.16917 60.8462 7.08909C60.3706 7.004 60.0115 6.96396 59.7786 6.96396C58.5896 6.96396 57.5851 7.22923 56.7552 7.75475C55.9302 8.28529 55.2945 8.996 54.8529 9.8969C54.4113 10.7978 54.1881 11.8388 54.1881 13.015C54.1881 14.1912 54.4161 15.1972 54.8675 16.0981C55.3236 16.999 55.9497 17.7147 56.7552 18.2402C57.5608 18.7708 58.4829 19.031 59.5311 19.031C60.1134 19.031 60.6133 18.996 61.0355 18.9209C61.4577 18.8458 61.8022 18.7407 62.0837 18.5956C62.4089 18.4054 62.7 18.2002 62.9572 17.985C63.2144 17.7698 63.5978 17.6597 64.1122 17.6597C64.7188 17.6597 65.1847 17.8599 65.5099 18.2553C65.835 18.6507 66 19.1361 66 19.7167C66 20.2973 65.6749 20.8629 65.0197 21.3584C64.3694 21.8488 63.5105 22.2492 62.4525 22.5495C61.3946 22.8498 60.2445 23 59.0118 23C57.1726 23 55.576 22.5596 54.2269 21.6837C52.8778 20.8078 51.8344 19.6116 51.1016 18.1001C50.3688 16.5886 50 14.8919 50 13.02C50 11.048 50.3882 9.31632 51.1695 7.81481C51.9509 6.31331 53.0331 5.13714 54.421 4.28128C55.8041 3.43043 57.3958 3 59.1914 3Z" fill="#83C5BE"/>
<path d="M88 13.02C88 14.992 87.5732 16.7237 86.7246 18.2252C85.876 19.7267 84.7363 20.8979 83.3009 21.7387C81.8703 22.5796 80.27 23 78.5 23C76.73 23 75.1297 22.5796 73.6991 21.7387C72.2685 20.8979 71.1289 19.7267 70.2754 18.2252C69.4268 16.7237 69 14.987 69 13.02C69 11.0531 69.4268 9.31632 70.2754 7.81481C71.124 6.31331 72.2637 5.13714 73.6991 4.28128C75.1297 3.43043 76.73 3 78.5 3C80.27 3 81.8703 3.42543 83.3009 4.28128C84.7315 5.13714 85.8711 6.31331 86.7246 7.81481C87.5732 9.31632 88 11.0531 88 13.02ZM83.8101 13.02C83.8101 11.7938 83.5725 10.7327 83.0924 9.83183C82.6171 8.93093 81.977 8.23023 81.172 7.72472C80.367 7.21922 79.4796 6.96897 78.5 6.96897C77.5204 6.96897 76.633 7.21922 75.828 7.72472C75.023 8.23023 74.3829 8.93093 73.9076 9.83183C73.4324 10.7327 73.1899 11.7938 73.1899 13.02C73.1899 14.2462 73.4275 15.2723 73.9076 16.1732C74.3829 17.0741 75.023 17.7748 75.828 18.2803C76.633 18.7858 77.5204 19.036 78.5 19.036C79.4796 19.036 80.367 18.7858 81.172 18.2803C81.977 17.7748 82.6171 17.0741 83.0924 16.1732C83.5676 15.2723 83.8101 14.2212 83.8101 13.02Z" fill="#83C5BE"/>
<path d="M62.2978 27.5909C61.8296 27.1937 61.2468 27 60.5589 27C59.9857 27 59.4124 27.0678 58.8392 27.2083C58.2659 27.3487 57.7261 27.5618 57.2245 27.8524C56.7182 28.143 56.2691 28.5014 55.8678 28.9325C55.5812 29.2376 55.3376 29.5766 55.1274 29.9447V29.47C55.1274 28.8646 54.9315 28.3609 54.5446 27.9541C54.1576 27.5473 53.6608 27.3439 53.0637 27.3439C52.4666 27.3439 51.9745 27.5473 51.5828 27.9541C51.1911 28.3609 51 28.8646 51 29.47V43.8738C51 44.4792 51.1959 44.9829 51.5828 45.3898C51.9745 45.7966 52.4666 46 53.0637 46C53.6608 46 54.1529 45.7966 54.5446 45.3898C54.9363 44.9829 55.1274 44.4792 55.1274 43.8738V35.6113C55.1274 34.7734 55.2373 34.0469 55.4522 33.4318C55.672 32.8167 55.9586 32.2985 56.3121 31.882C56.6656 31.4655 57.0573 31.1555 57.4825 30.9569C57.9076 30.7583 58.3232 30.6615 58.7389 30.6615C59.1975 30.6615 59.6035 30.7438 59.9618 30.9036C60.3201 31.0635 60.7118 31.1458 61.1465 31.1458C61.6051 31.1458 62.0303 30.9763 62.4172 30.6421C62.8089 30.3031 63 29.751 63 28.9857C63 28.453 62.7659 27.988 62.293 27.5909H62.2978Z" fill="#006D77"/>
<path d="M81.3319 29.8271C80.5079 28.9515 79.5613 28.2609 78.4872 27.7556C77.418 27.2502 76.2801 27 75.0785 27C73.5237 27 72.0523 27.4103 70.6643 28.2259C69.2763 29.0415 68.1531 30.2124 67.2899 31.7386C66.4316 33.2647 66 35.1061 66 37.2677C66 39.1191 66.3924 40.7753 67.182 42.2414C67.9717 43.7075 69.0997 44.8684 70.5711 45.719C72.0425 46.5697 73.7787 47 75.7798 47C76.9569 47 78.0997 46.7999 79.2033 46.4046C80.3117 46.0093 81.17 45.5439 81.7831 45.0185C82.4403 44.4931 82.7738 43.9027 82.7738 43.2522C82.7738 42.7718 82.6022 42.3515 82.2638 41.9912C81.9204 41.631 81.4937 41.4508 80.9738 41.4508C80.5962 41.4508 80.1989 41.5609 79.7722 41.7761C79.5123 41.9212 79.2229 42.0963 78.909 42.2965C78.5902 42.5016 78.1733 42.6768 77.6534 42.8169C77.1335 42.957 76.442 43.032 75.5689 43.032C74.6272 43.032 73.7395 42.7969 72.9008 42.3315C72.067 41.8611 71.3804 41.1806 70.8507 40.28C70.5417 39.7546 70.3357 39.1541 70.2033 38.4986H81.8469C82.4109 38.4986 82.9063 38.3185 83.3281 37.9582C83.7499 37.5979 83.9755 37.1276 84 36.5522C84 35.2562 83.7597 34.0303 83.2741 32.8794C82.7935 31.7285 82.1362 30.7128 81.3123 29.8371L81.3319 29.8271ZM71.5177 32.2239C71.964 31.7686 72.4937 31.4433 73.1068 31.2532C73.7199 31.063 74.3771 30.963 75.0834 30.963C75.7896 30.963 76.5008 31.1231 77.1482 31.4483C77.7956 31.7736 78.3351 32.2089 78.7717 32.7643C79.2082 33.3147 79.4485 33.9402 79.4975 34.6357V34.8859H70.2474C70.3063 34.5907 70.37 34.3105 70.4534 34.0553C70.7134 33.2847 71.0665 32.6743 71.5128 32.2189L71.5177 32.2239Z" fill="#006D77"/>
<path d="M100.682 28.0795C99.8 27.3582 98.5124 27 96.8194 27C96.042 27 95.3219 27.121 94.6542 27.3679C93.9914 27.6099 93.3952 27.9343 92.8706 28.3264C92.346 28.7233 91.8882 29.1445 91.4972 29.5995C91.3589 29.7592 91.2349 29.919 91.1204 30.0739V29.4785C91.1204 28.8734 90.9249 28.3699 90.5386 27.9633C90.1523 27.5567 89.6563 27.3534 89.0602 27.3534C88.4641 27.3534 87.9729 27.5567 87.5818 27.9633C87.1908 28.3699 87 28.8734 87 29.4785V43.8749C87 44.48 87.1955 44.9834 87.5818 45.3901C87.9729 45.7967 88.4641 46 89.0602 46C89.6563 46 90.1475 45.7967 90.5386 45.3901C90.9297 44.9834 91.1204 44.48 91.1204 43.8749V34.9534C91.1204 34.1885 91.2873 33.4963 91.6164 32.8815C91.9502 32.2667 92.4271 31.773 93.0566 31.4003C93.6861 31.0275 94.4587 30.8436 95.3744 30.8436C96.29 30.8436 97.034 31.0275 97.5395 31.4003C98.0402 31.773 98.3931 32.2667 98.5887 32.8815C98.7842 33.4963 98.8796 34.1885 98.8796 34.9534V43.8749C98.8796 44.48 99.0751 44.9834 99.4614 45.3901C99.8525 45.7967 100.344 46 100.94 46C101.536 46 102.027 45.7967 102.418 45.3901C102.809 44.9834 103 44.48 103 43.8749V34.9534C103 33.4915 102.833 32.1603 102.504 30.9646C102.17 29.7689 101.565 28.8104 100.682 28.0892V28.0795Z" fill="#006D77"/>
<path d="M117.596 43.0135C117.299 43.0135 117.032 43.0675 116.803 43.1708C116.573 43.2789 116.32 43.3281 116.048 43.3281C115.795 43.3281 115.561 43.2789 115.341 43.1855C115.121 43.0921 114.949 42.9397 114.825 42.7234C114.701 42.5121 114.634 42.2417 114.634 41.9075V32.3172H117.075C117.624 32.3172 118.083 32.1353 118.451 31.7666C118.818 31.4029 119 30.9457 119 30.405C119 29.8643 118.818 29.3678 118.451 28.9893C118.083 28.6108 117.624 28.424 117.075 28.424H114.634V26.1579C114.634 25.5435 114.443 25.0323 114.065 24.6194C113.688 24.2065 113.201 24 112.604 24C112.006 24 111.51 24.2065 111.108 24.6194C110.707 25.0323 110.506 25.5435 110.506 26.1579V28.424H108.925C108.376 28.424 107.917 28.6059 107.549 28.9746C107.182 29.3383 107 29.7955 107 30.3362C107 30.8769 107.182 31.3734 107.549 31.7519C107.917 32.1304 108.376 32.3172 108.925 32.3172H110.506V42.0844C110.506 43.2396 110.678 44.149 111.022 44.8077C111.366 45.4663 111.796 45.9579 112.312 46.2774C112.828 46.5969 113.377 46.7985 113.965 46.8771C114.548 46.9607 115.083 47 115.565 47C116.368 47 117.118 46.7886 117.82 46.361C118.518 45.9382 118.871 45.3926 118.871 44.7339C118.871 44.1932 118.737 43.7655 118.475 43.4608C118.212 43.156 117.92 42.9987 117.596 42.9987V43.0135Z" fill="#006D77"/>
<path d="M22.7538 38.1174C22.1538 38.1174 21.5692 38.0817 21 38.0255V46.9081C21.6667 46.9643 22.3436 47 23.0256 47H31L24.8769 38C24.1897 38.0715 23.4872 38.1225 22.7538 38.1225V38.1174Z" fill="#006D77"/>
<path d="M32 29.0195C32 28.6921 31.9751 28.3842 31.9351 28.086C31.7805 26.9472 31.3415 26.0235 30.6032 25.3245C29.6703 24.4399 28.2236 24 26.2481 24H22.0676C21.4789 24 21 24.4692 21 25.0459V34H26.2481C30.0794 34 31.995 32.3382 31.995 29.0195H32Z" fill="#006D77"/>
<path d="M46.9901 23.4926C46.9901 10.5167 36.4723 0 23.4951 0C10.5178 0 0 10.5167 0 23.4926C0 34.1621 7.11703 43.1659 16.8561 46.0291V37.0254C16.5505 36.8775 16.245 36.7149 15.9492 36.5424C13.8348 35.2956 12.2034 33.551 11.0501 31.3185C9.89681 29.0812 9.32016 26.5234 9.32016 23.6454C9.32016 20.7673 9.89681 18.2047 11.0501 15.9722C12.2034 13.7348 13.8348 11.9853 15.9492 10.7237C18.0637 9.4621 20.4886 8.83129 23.2339 8.83129C26.8022 8.83129 29.7644 9.73807 32.1252 11.5467C32.4702 11.8128 32.7955 12.0888 33.111 12.3845C34.5748 13.7595 33.6235 16.2186 31.6176 16.2186H31.238C30.6712 16.2186 30.1291 15.9969 29.72 15.6075C29.3898 15.2971 29.0349 15.0063 28.6554 14.7402C27.1571 13.7102 25.3285 13.1977 23.1599 13.1977C21.43 13.1977 19.8873 13.6215 18.527 14.474C17.1666 15.3266 16.0971 16.539 15.3184 18.116C14.5347 19.693 14.1453 21.541 14.1453 23.6503C14.1453 25.7596 14.5347 27.5682 15.3184 29.1452C15.7472 30.0077 16.2647 30.7567 16.8611 31.4023V22.5809C16.8611 21.2799 17.9158 20.2252 19.217 20.2252H27.1127C27.8717 20.2252 28.5815 20.2745 29.2567 20.3583C30.5973 20.5258 31.7703 20.8659 32.7807 21.3686C33.4855 21.7185 34.1213 22.1423 34.6684 22.6548C36.3836 24.2762 37.2412 26.415 37.2412 29.0762C37.2412 31.353 36.6054 33.2208 35.3289 34.6746C34.0523 36.1284 32.209 37.0599 29.7939 37.4738L36.4822 47H47V23.5074L46.9901 23.4926Z" fill="#006D77"/>
<path d="M35.0823 34.7391C36.3624 33.2911 37 31.4309 37 29.1633C37 26.5128 36.14 24.3826 34.4199 22.7678C33.8713 22.2573 33.2387 21.8352 32.5269 21.4867C31.5137 20.9861 30.3373 20.6474 28.9929 20.4805C28.3158 20.3971 27.6041 20.348 26.8429 20.348H18.9248C17.6199 20.348 16.5622 21.3983 16.5622 22.6941V31.48C15.9592 30.837 15.4402 30.0909 15.0152 29.232C14.2293 27.6613 13.8388 25.8354 13.8388 23.7592C13.8388 21.683 14.2293 19.8179 15.0152 18.2472C15.8011 16.6766 16.8736 15.4691 18.2328 14.62C19.597 13.7709 21.144 13.3487 22.8789 13.3487C25.0537 13.3487 26.8874 13.8592 28.3899 14.885C28.7755 15.1452 29.1313 15.4348 29.4575 15.7489C29.8678 16.1367 30.4115 16.3575 30.9799 16.3575H31.3605C33.3771 16.3575 34.331 13.9132 32.8581 12.5389C32.5467 12.2493 32.2155 11.9695 31.8696 11.7045C29.502 9.90313 26.5315 9 22.953 9C20.2 9 17.7682 9.62826 15.6478 10.8848C13.5274 12.1413 11.8914 13.8838 10.7349 16.1121C9.57829 18.3405 9 20.8879 9 23.7543C9 26.6208 9.57829 29.1731 10.7349 31.3965C11.8914 33.6249 13.5274 35.3575 15.6478 36.5993C15.9444 36.7711 16.2459 36.9331 16.5573 37.0803V46.0478C18.0697 46.4895 19.6415 46.784 21.2627 46.9166V38.3761C21.8113 38.4301 22.3748 38.4645 22.953 38.4645C23.6598 38.4645 24.337 38.4203 24.9993 38.3467L30.9008 47H36.224L29.5169 37.5123C31.9387 37.1049 33.7873 36.1723 35.0674 34.7244L35.0823 34.7391ZM21.2726 34.4102V25.4182C21.2726 24.8391 21.747 24.3679 22.3303 24.3679H26.4722C28.4245 24.3679 29.8628 24.8145 30.7871 25.698C31.5186 26.4048 31.9536 27.3276 32.1068 28.4712C32.1463 28.7706 32.171 29.0798 32.171 29.4087C32.171 32.7414 30.2731 34.4102 26.4771 34.4102H21.2775H21.2726Z" fill="white"/>
</g>
<defs>
<clipPath id="clip0_2019_697">
<rect width="119" height="47" fill="white"/>
</clipPath>
</defs>
</svg>
